HIERARCHY
ROOT Hips
{
    OFFSET 0.000000 0.000000 0.000000
    CHANNELS 6 Xposition Yposition Zposition Zrotation Xrotation Yrotation
    JOINT Spine
    {
        OFFSET 0.000001 7.292995 0.000000
        CHANNELS 3 Zrotation Xrotation Yrotation
        JOINT Spine1
        {
            OFFSET -0.000000 20.255388 0.000001
            CHANNELS 3 Zrotation Xrotation Yrotation
            JOINT Neck
            {
                OFFSET 0.000001 20.786594 0.000000
                CHANNELS 3 Zrotation Xrotation Yrotation
                JOINT Head
                {
                    OFFSET 0.000003 12.530788 1.776080
                    CHANNELS 3 Zrotation Xrotation Yrotation
                    End Site
                    {
                        OFFSET 0.000000 17.760757 0.000000
                    }
                }
            }
            JOINT LeftShoulder
            {
                OFFSET 3.550532 15.465697 -0.908801
                CHANNELS 3 Zrotation Xrotation Yrotation
                JOINT LeftArm
                {
                    OFFSET 12.513301 -0.000005 0.000001
                    CHANNELS 3 Zrotation Xrotation Yrotation
                    JOINT LeftForeArm
                    {
                        OFFSET 24.225992 0.000005 0.000000
                        CHANNELS 3 Zrotation Xrotation Yrotation
                        JOINT LeftHand
                        {
                            OFFSET 20.711395 -0.000004 0.000000
                            CHANNELS 3 Zrotation Xrotation Yrotation
                            JOINT LeftHandThumb1
                            {
                                OFFSET 2.121964 -2.411326 3.375861
                                CHANNELS 3 Zrotation Xrotation Yrotation
                                JOINT LeftHandThumb2
                                {
                                    OFFSET 2.803212 -0.000001 -0.000002
                                    CHANNELS 3 Zrotation Xrotation Yrotation
                                    JOINT LeftHandThumb3
                                    {
                                        OFFSET 2.395929 0.000000 0.000000
                                        CHANNELS 3 Zrotation Xrotation Yrotation
                                        End Site
                                        {
                                            OFFSET 2.127676 0.000000 0.000000
                                        }
                                    }
                                }
                            }
                            JOINT LeftHandIndex1
                            {
                                OFFSET 8.680776 0.000004 3.375861
                                CHANNELS 3 Zrotation Xrotation Yrotation
                                JOINT LeftHandIndex2
                                {
                                    OFFSET 4.218180 -0.000002 0.000001
                                    CHANNELS 3 Zrotation Xrotation Yrotation
                                    JOINT LeftHandIndex3
                                    {
                                        OFFSET 2.109090 0.000001 -0.000000
                                        CHANNELS 3 Zrotation Xrotation Yrotation
                                        End Site
                                        {
                                            OFFSET 1.872952 0.000000 0.000000
                                        }
                                    }
                                }
                            }
                            JOINT LeftHandMiddle1
                            {
                                OFFSET 8.680775 0.000001 1.118862
                                CHANNELS 3 Zrotation Xrotation Yrotation
                                JOINT LeftHandMiddle2
                                {
                                    OFFSET 4.640000 0.000002 -0.000000
                                    CHANNELS 3 Zrotation Xrotation Yrotation
                                    JOINT LeftHandMiddle3
                                    {
                                        OFFSET 2.530906 0.000005 0.000000
                                        CHANNELS 3 Zrotation Xrotation Yrotation
                                        End Site
                                        {
                                            OFFSET 2.247544 0.000000 0.000000
                                        }
                                    }
                                }
                            }
                            JOINT LeftHandRing1
                            {
                                OFFSET 8.198514 -0.000004 -1.118859
                                CHANNELS 3 Zrotation Xrotation Yrotation
                                JOINT LeftHandRing2
                                {
                                    OFFSET 4.218182 -0.000003 -0.000001
                                    CHANNELS 3 Zrotation Xrotation Yrotation
                                    JOINT LeftHandRing3
                                    {
                                        OFFSET 2.109086 0.000004 0.000001
                                        CHANNELS 3 Zrotation Xrotation Yrotation
                                        End Site
                                        {
                                            OFFSET 1.872952 0.000000 0.000000
                                        }
                                    }
                                }
                            }
                            JOINT LeftHandPinky1
                            {
                                OFFSET 7.716242 0.000005 -3.375859
                                CHANNELS 3 Zrotation Xrotation Yrotation
                                JOINT LeftHandPinky2
                                {
                                    OFFSET 3.374535 0.000004 0.000002
                                    CHANNELS 3 Zrotation Xrotation Yrotation
                                    JOINT LeftHandPinky3
                                    {
                                        OFFSET 1.687275 0.000002 -0.000001
                                        CHANNELS 3 Zrotation Xrotation Yrotation
                                        End Site
                                        {
                                            OFFSET 1.498360 0.000000 0.000000
                                        }
                                    }
                                }
                            }
                        }
                    }
                }
            }
            JOINT RightShoulder
            {
                OFFSET -3.550531 15.465694 -0.908802
                CHANNELS 3 Zrotation Xrotation Yrotation
                JOINT RightArm
                {
                    OFFSET -12.513298 -0.000004 0.000001
                    CHANNELS 3 Zrotation Xrotation Yrotation
                    JOINT RightForeArm
                    {
                        OFFSET -24.225996 -0.000002 -0.000000
                        CHANNELS 3 Zrotation Xrotation Yrotation
                        JOINT RightHand
                        {
                            OFFSET -20.711401 0.000005 0.000001
                            CHANNELS 3 Zrotation Xrotation Yrotation
                            JOINT RightHandThumb1
                            {
                                OFFSET -2.121970 -2.411334 3.375861
                                CHANNELS 3 Zrotation Xrotation Yrotation
                                JOINT RightHandThumb2
                                {
                                    OFFSET -2.803210 0.000003 -0.000004
                                    CHANNELS 3 Zrotation Xrotation Yrotation
                                    JOINT RightHandThumb3
                                    {
                                        OFFSET -2.395930 -0.000001 0.000002
                                        CHANNELS 3 Zrotation Xrotation Yrotation
                                        End Site
                                        {
                                            OFFSET -2.127676 0.000000 0.000000
                                        }
                                    }
                                }
                            }
                            JOINT RightHandIndex1
                            {
                                OFFSET -8.680779 0.000001 3.375860
                                CHANNELS 3 Zrotation Xrotation Yrotation
                                JOINT RightHandIndex2
                                {
                                    OFFSET -4.218180 0.000000 -0.000000
                                    CHANNELS 3 Zrotation Xrotation Yrotation
                                    JOINT RightHandIndex3
                                    {
                                        OFFSET -2.109090 0.000001 -0.000000
                                        CHANNELS 3 Zrotation Xrotation Yrotation
                                        End Site
                                        {
                                            OFFSET -1.872952 0.000000 0.000000
                                        }
                                    }
                                }
                            }
                            JOINT RightHandMiddle1
                            {
                                OFFSET -8.680780 0.000001 1.118860
                                CHANNELS 3 Zrotation Xrotation Yrotation
                                JOINT RightHandMiddle2
                                {
                                    OFFSET -4.640000 -0.000002 0.000001
                                    CHANNELS 3 Zrotation Xrotation Yrotation
                                    JOINT RightHandMiddle3
                                    {
                                        OFFSET -2.530910 0.000001 -0.000000
                                        CHANNELS 3 Zrotation Xrotation Yrotation
                                        End Site
                                        {
                                            OFFSET -2.247544 0.000000 0.000000
                                        }
                                    }
                                }
                            }
                            JOINT RightHandRing1
                            {
                                OFFSET -8.198519 0.000005 -1.118860
                                CHANNELS 3 Zrotation Xrotation Yrotation
                                JOINT RightHandRing2
                                {
                                    OFFSET -4.218180 -0.000006 0.000000
                                    CHANNELS 3 Zrotation Xrotation Yrotation
                                    JOINT RightHandRing3
                                    {
                                        OFFSET -2.109090 0.000001 -0.000000
                                        CHANNELS 3 Zrotation Xrotation Yrotation
                                        End Site
                                        {
                                            OFFSET -1.872952 0.000000 0.000000
                                        }
                                    }
                                }
                            }
                            JOINT RightHandPinky1
                            {
                                OFFSET -7.716248 -0.000002 -3.375859
                                CHANNELS 3 Zrotation Xrotation Yrotation
                                JOINT RightHandPinky2
                                {
                                    OFFSET -3.374540 0.000000 0.000000
                                    CHANNELS 3 Zrotation Xrotation Yrotation
                                    JOINT RightHandPinky3
                                    {
                                        OFFSET -1.687270 0.000004 0.000001
                                        CHANNELS 3 Zrotation Xrotation Yrotation
                                        End Site
                                        {
                                            OFFSET -1.498360 0.000000 0.000000
                                        }
                                    }
                                }
                            }
                        }
                    }
                }
            }
        }
    }
    JOINT LeftUpLeg
    {
        OFFSET 8.880376 -0.000000 -0.000000
        CHANNELS 3 Zrotation Xrotation Yrotation
        JOINT LeftLeg
        {
            OFFSET -0.000001 -40.387405 -0.000001
            CHANNELS 3 Zrotation Xrotation Yrotation
            JOINT LeftFoot
            {
                OFFSET -0.000001 -36.911297 -0.000001
                CHANNELS 3 Zrotation Xrotation Yrotation
                JOINT LeftToeBase
                {
                    OFFSET -0.000002 -5.772240 13.320604
                    CHANNELS 3 Zrotation Xrotation Yrotation
                    End Site
                    {
                        OFFSET 0.000000 0.000000 3.552151
                    }
                }
            }
        }
    }
    JOINT RightUpLeg
    {
        OFFSET -8.880376 0.000000 0.000000
        CHANNELS 3 Zrotation Xrotation Yrotation
        JOINT RightLeg
        {
            OFFSET -0.000001 -40.387390 0.000000
            CHANNELS 3 Zrotation Xrotation Yrotation
            JOINT RightFoot
            {
                OFFSET 0.000002 -36.911297 -0.000001
                CHANNELS 3 Zrotation Xrotation Yrotation
                JOINT RightToeBase
                {
                    OFFSET 0.000001 -5.772238 13.320600
                    CHANNELS 3 Zrotation Xrotation Yrotation
                    End Site
                    {
                        OFFSET 0.000000 0.000000 3.552151
                    }
                }
            }
        }
    }
}
MOTION
Frames: 4
Frame Time: 0.013889
5.565021    83.975990    82.963707    -0.509205    8.583944    -3.155525    0.373816    -23.566984    0.934890    0.425965    15.505872    0.711887    -1.578772    -7.338856    -1.924756    1.346043    2.822807    -1.801418    -3.016229    6.086290    -0.618706    -61.563515    39.406219    -11.852330    -5.958695    -19.389343    -17.453014    -11.302902    3.590604    7.032479    29.466146    35.734959    -41.480412    -12.858211    -0.409591    23.314083    -0.000000    0.000000    -0.000000    -8.032443    17.834604    -2.528716    -7.644054    -0.000005    0.000003    -7.644054    0.000005    0.000002    -6.618955    8.940989    -1.468572    -6.538179    0.000000    0.000000    -6.538178    0.000000    0.000000    -6.059290    -8.950541    -1.349580    -5.985238    0.000001    -0.000002    -5.985243    -0.000001    -0.000000    -5.710041    -17.916367    -2.568691    -5.432302    -0.000001    0.000001    -5.432287    -0.000001    0.000000    7.058029    6.029128    2.170857    64.358658    30.308781    6.205297    8.446214    -24.391281    19.777201    -2.193229    -2.263831    -10.258532    -38.178841    29.059347    44.618855    12.817973    -0.392246    -23.314360    -0.000000    0.000000    -0.000000    9.372950    17.774855    2.640514    8.921769    0.000002    0.000002    8.921770    -0.000003    0.000001    9.847966    8.869513    1.229440    9.729062    0.000000    0.000002    9.729046    0.000002    0.000001    10.256342    -8.858493    -2.442565    10.132705    -0.000000    0.000001    10.132711    0.000000    0.000000    11.065500    -17.686342    -4.677126    10.536343    0.000000    0.000001    10.536353    -0.000001    0.000001    -1.497205    -4.327228    6.579353    -0.000000    4.226815    0.000000    -4.961471    -5.561063    -9.253540    -0.000002    1.870173    -0.000000    0.979412    -5.502826    -14.315755    -0.000000    5.044393    0.000000    10.428275    -5.713419    9.066721    0.000001    0.183447    -0.000002    
5.612854    83.976822    82.978233    -0.500850    8.566925    -3.272034    0.368514    -23.567307    0.921618    0.450840    15.481536    0.693796    -1.431084    -7.297977    -1.826477    1.373613    2.789872    -1.723050    -2.907704    6.014590    -0.674479    -61.296707    39.216713    -11.992970    -5.581523    -18.784204    -16.882540    -12.119387    3.723818    7.423306    29.574720    35.656322    -41.570084    -12.838140    -0.400929    23.314207    -0.000000    0.000000    -0.000000    -8.290033    17.823830    -2.440578    -7.889538    0.000002    0.000000    -7.889554    0.000005    -0.000001    -6.793548    8.937838    -1.436804    -6.710680    0.000000    -0.000007    -6.710670    -0.000000    0.000002    -6.196954    -8.948270    -1.323812    -6.121239    -0.000001    0.000003    -6.121248    -0.000001    -0.000003    -5.814587    -17.913277    -2.506486    -5.531816    -0.000002    -0.000002    -5.531803    -0.000000    0.000001    7.004396    5.985708    2.170619    64.168846    29.972885    6.143020    8.204857    -23.989811    19.526690    -1.818649    -2.277297    -10.420000    -38.151321    29.098154    44.548626    12.844328    -0.403602    -23.314182    -0.000000    0.000000    -0.000000    9.523111    17.767591    2.619052    9.064949    0.000003    0.000001    9.064960    -0.000003    -0.000001    9.957916    8.866592    1.224678    9.837711    -0.000001    -0.000002    9.837713    -0.000000    -0.000001    10.348802    -8.855934    -2.476707    10.224092    -0.000001    -0.000000    10.224089    -0.000000    -0.000001    11.143174    -17.681931    -4.750293    10.610477    -0.000001    -0.000000    10.610473    0.000000    -0.000001    -1.556745    -4.315720    6.573535    0.000000    4.262006    0.000000    -4.748837    -5.548815    -9.082595    -0.000001    1.855372    -0.000001    0.882018    -5.509845    -14.541722    0.000000    5.139653    -0.000005    10.872035    -5.751347    9.484246    0.000001    0.080941    0.000000    
5.682614    83.981056    82.986137    -0.486956    8.536750    -3.452769    0.357874    -23.551931    0.895565    0.473561    15.455719    0.665115    -1.160444    -7.231926    -1.634883    1.424545    2.746689    -1.567484    -2.771283    5.897286    -0.782814    -60.819912    38.946918    -12.244206    -5.062557    -17.900761    -16.077871    -13.223361    4.086530    7.980755    29.773098    35.513077    -41.680893    -12.787398    -0.379064    23.314558    -0.000000    0.000000    -0.000000    -8.858802    17.798851    -2.145495    -8.431621    0.000002    0.000000    -8.431629    -0.000002    -0.000000    -7.135661    8.931428    -1.323119    -7.048716    0.000000    -0.000003    -7.048701    0.000002    -0.000002    -6.435836    -8.944204    -1.292796    -6.357249    -0.000000    0.000003    -6.357250    -0.000002    -0.000000    -5.955317    -17.909029    -2.413436    -5.665788    0.000001    0.000001    -5.665798    -0.000002    -0.000001    6.896326    5.914292    2.156063    63.895725    29.445383    6.015465    7.937550    -23.565048    19.226557    -1.396141    -2.419624    -10.318381    -37.982574    29.261620    44.394466    12.937343    -0.443692    -23.313496    -0.000000    0.000000    -0.000000    9.716253    17.758087    2.602684    9.249138    -0.000001    0.000003    9.249119    0.000001    -0.000001    10.108182    8.862544    1.222801    9.986247    0.000000    0.000002    9.986233    0.000001    0.000002    10.481046    -8.852240    -2.516484    10.354811    0.000001    0.000000    10.354805    0.000001    0.000000    11.261446    -17.675152    -4.834636    10.723374    0.000000    -0.000000    10.723370    0.000002    -0.000001    -1.643036    -4.333502    6.546231    -0.000000    4.374981    0.000001    -4.339694    -5.529279    -8.799683    -0.000000    1.794315    0.000000    0.755140    -5.538638    -14.796351    0.000000    5.284315    -0.000001    11.386868    -5.845444    10.013130    0.000002    -0.068293    -0.000003    
5.741326    83.980087    82.993027    -0.465504    8.522098    -3.619097    0.346435    -23.552647    0.866918    0.514999    15.430705    0.629070    -0.968576    -7.171920    -1.457124    1.434898    2.724834    -1.413691    -2.659788    5.810536    -0.863784    -60.416553    38.695129    -12.444522    -4.686402    -17.242247    -15.459375    -14.089229    4.428495    8.375045    29.907953    35.415440    -41.748970    -12.761456    -0.367879    23.314734    -0.000000    0.000000    -0.000000    -9.347496    17.776072    -1.928531    -8.897494    0.000002    0.000000    -8.897470    0.000002    0.000000    -7.419837    8.925858    -1.245183    -7.329489    0.000000    0.000000    -7.329490    0.000003    0.000000    -6.626357    -8.940854    -1.274782    -6.545485    -0.000003    -0.000000    -6.545491    0.000002    -0.000002    -6.055830    -17.905935    -2.349088    -5.761492    0.000000    0.000000    -5.761478    -0.000002    0.000002    6.806874    5.844986    2.164367    63.630379    29.073181    5.923868    7.674801    -23.143028    18.925312    -1.030185    -2.483664    -10.350000    -37.854214    29.374096    44.319725    13.004080    -0.472452    -23.312956    -0.000000    0.000000    -0.000000    9.865212    17.750622    2.606863    9.391192    0.000002    -0.000001    9.391191    0.000000    -0.000000    10.230092    8.859216    1.228823    10.106763    0.000001    0.000000    10.106754    -0.000001    0.000001    10.592047    -8.849099    -2.539310    10.464530    0.000000    -0.000000    10.464530    0.000000    -0.000000    11.365099    -17.669155    -4.882979    10.822315    0.000001    -0.000001    10.822319    0.000000    -0.000000    -1.728348    -4.347197    6.511087    0.000001    4.444011    -0.000001    -4.011716    -5.520550    -8.505714    0.000000    1.765465    0.000001    0.652232    -5.591801    -14.913867    0.000000    5.440755    -0.000001    11.696938    -5.934983    10.321727    -0.000000    -0.224123    0.000001    
